<svg xmlns="http://www.w3.org/2000/svg" xmlns:xlink="http://www.w3.org/1999/xlink" width="192" height="56" viewBox="0 0 192 56">
    <defs>
        <path id="a" d="M41.858 55.988H.012V.178h41.846z"/>
    </defs>
    <g fill="none" fill-rule="evenodd">
        <g>
            <mask id="b" fill="#fff">
                <use xlink:href="#a"/>
            </mask>
            <path fill="#FFF" d="M3.996 26.16l-.296.079.85 2.962.202-.055-.756-2.986zm11.56-17.483l.365-.006-.315-3.061-.05.01v3.057zM29.57 35.243l-1.022-2.389c.035 2.001.203 2.386 1.022 2.39zM12.123 14.218c.225-1.992.221-2.002-.613-1.983l.613 1.983zM23.15 25.122c-.647 1.436-1.817.538-2.789.688 1.249.884 2.567.598 2.79-.688zM9.465 29.59c1.105.453 1.429.071 1.217-1.818L9.465 29.59zm-4.063 3.744v3.659l.417-.024c.299-1.239-.334-2.425-.417-3.635zm22.742-26.97v4.974c.585-.582.638-3.533 0-4.973zm-12.329 18.55c.89-.343.836-2.309 0-3.588v3.588zm-12.325.624l.3-.08L2.34 19.73l-.33.088 1.481 5.72zm6.295-2.656l.46 4.626c.661-.549.443-2.863-.46-4.626zm4.01 1.506l.326-.045-.649-5.513-.46.063.783 5.495zm14.036-4.92c-.178 1.579-.416 3.531-.602 5.488-.034.353.147.726.228 1.09l.274-.042c.048-.206.08-.414.097-.625.006-2.094.003-4.188.003-5.91zm-4.303-1.44l-.266.003v6.633l.266.015v-6.652zM7.095 42.437c-.81.68-.053 4.022 1.073 5.058l-1.073-5.058zm16.31-24.993l.407.06c.387-2.1.707-4.206.649-6.345l-.295-.027-.76 6.312zm5.065-5.571c-.788.333-1.05 5.265-.373 6.573l.373-6.573zm-9.153-2.488l-.457.011c-.367 2.277.493 4.447.902 6.657l-.445-6.668zM5.975 37.401c-.741 1.678.054 3.245.43 4.843.915-1.69-.289-3.229-.43-4.843zm8.949 14.517l-3.528-.548-.097.192 3.336 2.178.289-1.822zm13.56.3l-.127-.281c-.52.148-1.037.32-1.564.44-.54.122-1.085.215-1.634.278-1.193.136-1.372.357-1.185 1.822l4.51-2.259zM11.857 11.776l.319-.222c.106-2.087.099-4.16-.759-6.13a98.416 98.416 0 0 0-.05 5.712c.005.216.32.427.49.64zm7.153 40.495L15.42 52c-.003.709-.73 1.549.17 1.993.955.471 2.077.607 3.256.924l.164-2.645zm12.431-14.81c1.97-2.15 2.068-4.88 2.687-7.424a2.206 2.206 0 0 0-.526.77c-.622 1.211-1.219 2.437-1.89 3.62a2.742 2.742 0 0 1-1 1.026c-.964.525-1.013.695-.136 1.386.228.18.471.34.865.621zm-7.848 15.29l-4.1-.415-.166 2.506c.713 0 1.292.025 1.868-.004 1.981-.1 1.98-.107 2.398-2.088zm15.236-21.966c1.01-2.154 1.933-4.293 1.863-6.698-.011-.398-.231-.79-.355-1.184l-.47.015c-.657 2.015-1.287 4.039-1.983 6.042-.32.923-.033 1.467.945 1.825zM2.855 19.78l1.311 5.216 2.477-.75-1.806-5.02-1.982.554zm3.799 4.977c-.665.207-1.285.364-1.87.604a.684.684 0 0 0-.326.57c.354 1.658.753 3.305 1.151 5.002l2.305-1.795-1.26-4.38zm30.375 5.098c.814-2.403 1.586-4.683 2.4-7.093-3.152 1.188-3.55 4.06-4.492 6.697l2.092.396zM.891 14.265c.553 1.534 1.104 2.876 1.513 4.26.258.873.78.664 1.347.542.599-.13.853-.413.72-1.096-.214-1.11-.292-2.247-.46-3.367a2.539 2.539 0 0 0-.332-.897c-.396-.664-.978-1.397-1.74-1.11-.479.18-.693 1.063-1.048 1.667zm18.217 37.532v-4.671h-2.964l-.612 4.401 3.576.27zm18.507-21.12a.708.708 0 0 0-.062.115c-.89 3.257-2.084 6.349-4.7 8.677a.628.628 0 0 0-.175.502c.297 1.37.624 2.733.942 4.099l.28.087c.536-1.574 1.307-3.111 1.555-4.729a19.517 19.517 0 0 1 2.696-7.33c.449-.734.265-1.112-.536-1.42zm-10.057-.854c-.094-.623-.165-1.196-.27-1.763-.403-2.2-.624-2.405-2.874-2.731-.156-.023-.311-.042-.424-.057l-.997 1.347.881 3.471 3.684-.267zm-.25-11.313v-6.651l-2.232-.506c-.235 1.982-.479 3.937-.677 5.897-.022.21.179.593.353.646.79.243 1.609.396 2.557.614zm.265-7.08c0-2.197.005-4.164-.003-6.131a1.079 1.079 0 0 0-1.184-1.148c-.393.02-.984.449-1.098.815a9.237 9.237 0 0 0-.424 2.735c.002 1.024.227 2.047.37 3.188l2.339.54zM16.34 9.574c-.094 1.825-.175 3.568-.275 5.31-.126 2.203.303 2.547 2.46 1.946.182-.05.36-.122.594-.202l-.96-7.054h-1.82.001zM9.737 19.63l1.611 7.259 2.366-1.097-1.205-6.393-2.772.231zm25.118 10.33c-1 2.757-.956 5.773-3.18 7.896l.774 1.337c2.66-2.412 3.886-5.436 4.683-8.84l-2.277-.393zM8.695 12.473c.302 1.993.604 4.062.95 6.123.093.23.296.397.54.444a6.762 6.762 0 0 0 1.808-.148c.21-.052.494-.527.452-.755a37.557 37.557 0 0 0-.946-4.254c-.589-1.917-.651-1.898-2.634-1.56a.868.868 0 0 0-.17.15zm18.048 12.956c.217-2.2.425-4.312.63-6.41l-3.214-.708v6.431l2.584.687zM8.854 48.389c.944 2.31 3.189 3.27 6.143 2.87.199-.909.462-1.818.576-2.746.064-.511.208-1.388-.712-1.254-1.976.289-3.929.729-6.007 1.13zm2.066-36.743c-.07-.725-.172-1.336-.18-1.949-.016-1.554.044-3.109.006-4.662-.026-1.068-.827-1.675-1.76-1.24-.45.208-.96.916-.942 1.378.083 2.215.338 4.425.534 6.655l2.342-.182zM28.332 35.34c-.21-1.526-.4-2.996-.626-4.46-.027-.171-.255-.445-.387-.444-1.138.012-2.275.076-3.386.123l.472 5.366 3.927-.585zM15.833 17.507l1.268 7.228h2.021c.2-2.54.454-5.036.047-7.437l-3.336.21zm.657-8.448c.48.03.96.022 1.439-.024a.82.82 0 0 0 .563-.504c.248-1.633.493-3.271.613-4.917.035-.49-.234-1.074-.532-1.498-.47-.671-1.7-.974-2.284-.657-.774.419-.6 1.144-.52 1.814.223 1.863.463 3.725.72 5.784v.002zM6.399 36.2l4.278-2.046c-.644-1.566.191-3.788-2.177-4.56l-.287-.096c-.708.572-1.474 1.167-2.207 1.801a.886.886 0 0 0-.314.644c.207 1.43.467 2.853.707 4.256v.001zm.953 5.093l4.562-1.48-1.208-5.188c-1.334.683-2.571 1.295-3.777 1.963a.843.843 0 0 0-.297.708c.208 1.34.475 2.67.72 3.997zm3.82-6.825l1.229 5.37 4.825-.416-.816-5.594-5.239.64zM19.2 46.45l-1.933-6.514c-.785.049-1.532.083-2.277.144-.762.063-1.522.151-2.28.228.189 1.789 1.72 5.18 2.756 6.147.142.12.323.184.51.181 1.034-.042 2.067-.115 3.225-.185zm7.586-3.792l5.195-3.03c-.306-.957-.576-1.666-1.663-1.777-.457-.047-1.09-.515-1.245-.937-.409-1.118-1.143-1.125-2.068-.924-.569.135-1.146.231-1.729.287-.782.059-.927.463-.856 1.166.204 2.022 1.133 3.69 2.367 5.216h-.001zm-12.017 4.018l-2.938-6.367c-1.171.406-2.43.817-3.665 1.291-.246.095-.598.463-.566.645.347 1.935.761 3.858 1.145 5.722l6.024-1.291zm1.62-13.329c.056-2.152.313-4.326-.89-6.26-.265-.424-.957-.956-1.32-.872a7.903 7.903 0 0 0-2.634 1.202c-.296.204-.181.953-.334 1.427-.192.595-.685 1.172-.66 1.74.053 1.178.361 2.344.549 3.42l5.289-.657zm.534.752l.777 5.197c1.424-.137 2.487-.586 3.436-1.412.675-.587 1.49-1.014 2.222-1.54.203-.146.487-.396.478-.585-.076-1.64-.21-3.278-.352-5.24l-6.561 3.58zm-.023-.52c.998-.523 1.744-.887 2.462-1.297.674-.386 1.31-.836 1.98-1.229.635-.372 1.672-.579 1.845-1.09.223-.66-.236-1.55-.405-2.342a.503.503 0 0 0-.098-.27c-.259-.211-.535-.566-.806-.567-.98-.004-1.757-.264-2.338-1.112-.41-.6-2.32-.676-2.728-.178-.3.364-.613.717-.989 1.155 1.307 1.977 1.064 4.314 1.077 6.93zm2.638 18.285c1.312.128 2.504.291 3.7.33.316.01.75-.286.95-.568a46.66 46.66 0 0 0 1.958-3.022c.469-.774.965-1.553 1.28-2.392.378-1.004.204-1.973-.696-2.733-2.204 1.452-4.104 3.42-6.977 3.57l-.215 4.815zm6.949-8.815c-1.555-1.893-2.515-3.941-2.74-6.42-1.003.607-1.805 1.363-2.725 1.923-.954.58-2.023.97-3.213 1.522l1.903 6.442c2.842-.06 4.62-2.033 6.774-3.467h.001zm-1.98 8.893l.226.249c2.57-.178 4.896-.826 6.258-3.341.634-1.171 1.288-2.33 1.926-3.499a.842.842 0 0 0 .153-.449c-.226-1.606-.474-3.209-.731-4.915l-5.265 3.048c1.058 1.185 1.26 2.404.686 3.654-.414.906-1.004 1.734-1.535 2.585-.561.897-1.145 1.78-1.718 2.668zM0 13.26c.367-.864.666-1.818 1.835-1.87 1.233-.056 2.169.55 2.712 1.59.514 1.01.934 2.064 1.255 3.15.942 3.07 1.82 6.16 2.728 9.24.071.274.232.515.458.686-.223-1.792-.417-3.588-.674-5.375-.592-4.117-1.258-8.223-1.798-12.346a12.865 12.865 0 0 1 .099-3.485c.18-1.233 1-2.026 2.267-2.24 1.276-.216 2.31.234 3.06 1.28.964 1.347 1.243 2.916 1.348 4.518.153 2.333.215 4.674.415 7.003.076.878.434 1.73.894 2.548-.103-4.111-.205-8.223-.306-12.334-.021-.91-.089-1.827.006-2.726.12-1.139.525-2.193 1.767-2.566 1.23-.37 2.441-.068 3.195.894.627.8 1.14 1.875 1.226 2.87.18 2.062-.02 4.153.052 6.228.156 4.517.384 9.032.588 13.548.02.422-.105.992.733.832.069-.865.135-1.736.208-2.606.297-3.528.572-7.059.903-10.584.167-1.776.412-3.547.677-5.312a6.486 6.486 0 0 1 .543-1.66c.829-1.839 2.42-2.168 3.936-.81 1.177 1.053 1.564 2.491 1.565 3.97 0 2.535-.144 5.07-.252 7.603-.15 3.51-.449 7.018-.44 10.526.004 2.193.428 4.388.725 6.575.08.596.377 1.162.653 1.97a21.689 21.689 0 0 0 2.543-5.002c.873-2.338 2.02-4.527 3.843-6.263a5.975 5.975 0 0 1 2.217-1.336c1.567-.502 2.77.446 2.863 2.074.107 1.896-.39 3.679-1.095 5.401a30.076 30.076 0 0 1-1.69 3.509c-1.222 2.138-2.149 4.352-2.456 6.825-.251 2.03-1.148 3.844-2.191 5.587-.667 1.114-1.385 2.208-1.938 3.379-3.635 7.7-13.248 9.168-19.323 5.615-4.239-2.48-6.804-6.077-7.86-10.847-.775-3.508-1.295-7.027-1.18-10.63a6.933 6.933 0 0 0-.306-1.908C2.645 26.284 1.46 21.796.29 17.303c-.113-.433-.194-.873-.29-1.31v-2.734z" mask="url(#b)"/>
        </g>
        <path fill="#FFF" d="M180.47 34.709h1.443V23.958l8.466 10.75h1.18V21.598h-1.442v10.507l-8.26-10.506h-1.385V34.71l-.001-.001zm-9.796-1.143c-2.997 0-5.17-2.435-5.17-5.413v-.037c0-2.978 2.136-5.376 5.132-5.376 2.996 0 5.17 2.435 5.17 5.413v.038c0 2.978-2.135 5.375-5.131 5.375h-.001zm-.038 1.368c3.99 0 6.706-3.166 6.706-6.78v-.038c0-3.615-2.679-6.743-6.668-6.743-3.99 0-6.706 3.165-6.706 6.78v.038c.001 3.615 2.68 6.743 6.67 6.743h-.002zm-11.407-.225h1.48V21.597h-1.48v13.112zm-8.804 0h1.499V22.965h4.401v-1.367h-10.302v1.367h4.402v11.744zm-12.363-1.143c-2.997 0-5.17-2.435-5.17-5.413v-.037c0-2.978 2.136-5.376 5.132-5.376 2.997 0 5.17 2.435 5.17 5.413v.038c.001 2.978-2.134 5.375-5.131 5.375zm-.037 1.368c3.99 0 6.705-3.166 6.705-6.78v-.038c0-3.615-2.678-6.743-6.668-6.743s-6.705 3.165-6.705 6.78v.038c0 3.615 2.68 6.743 6.669 6.743h-.001zm-22.347-.225h1.443V24.108l4.776 7.004h.075l4.776-7.024v10.62h1.48V21.596h-1.499l-4.776 7.155-4.776-7.155h-1.499v13.113zm-9.797-2.435c-2.322 0-3.97-1.873-3.97-4.12v-.038c0-2.248 1.61-4.083 3.933-4.083 2.322 0 3.97 1.873 3.97 4.12v.038c0 2.247-1.61 4.083-3.932 4.083zm-.037 2.66c4.046 0 6.986-3.053 6.986-6.78v-.038c0-3.727-2.903-6.743-6.949-6.743-4.045 0-6.985 3.053-6.985 6.78v.038c0 3.727 2.903 6.743 6.949 6.743h-.001zm-21.166-.225h2.847v-8.335l6.35 8.335h2.453V21.597h-2.846v8.072l-6.144-8.072h-2.66v13.112zM73.926 29.22l1.742-4.252 1.742 4.252h-3.484zm-5.17 5.488h2.941l1.2-2.94h5.543l1.199 2.94h3.016l-5.62-13.205h-2.66l-5.618 13.205zm-15.135 0h2.83v-8.503l3.652 5.544h.075l3.69-5.6v8.56h2.866V21.598h-3.11l-3.447 5.544-3.446-5.544h-3.11V34.71v-.001z"/>
    </g>
</svg>
